solid OpenSCAD_Model
  facet normal 0 -1 0
    outer loop
      vertex 0 0 0
      vertex 70 0 0
      vertex 0 0 15
    endloop
  endfacet
  facet normal 0 0 -1
    outer loop
      vertex 0 0 0
      vertex 0 115 0
      vertex 70 0 0
    endloop
  endfacet
  facet normal -1 0 0
    outer loop
      vertex 0 0 0
      vertex 0 0 15
      vertex 0 15.5 13
    endloop
  endfacet
  facet normal -1 0 0
    outer loop
      vertex 0 0 0
      vertex 0 15.5 13
      vertex 0 36.5 13
    endloop
  endfacet
  facet normal 0 0 1
    outer loop
      vertex 0 0 15
      vertex 1.5 1.5 15
      vertex 1.5 15.5 15
    endloop
  endfacet
  facet normal -1 0 0
    outer loop
      vertex 0 0 15
      vertex 0 15.5 15
      vertex 0 15.5 13
    endloop
  endfacet
  facet normal 0 0 1
    outer loop
      vertex 0 0 15
      vertex 1.5 15.5 15
      vertex 0 15.5 15
    endloop
  endfacet
  facet normal -1 0 0
    outer loop
      vertex 0 0 0
      vertex 0 36.5 13
      vertex 0 115 15
    endloop
  endfacet
  facet normal 0 0 1
    outer loop
      vertex 0 0 15
      vertex 68.5 1.5 15
      vertex 1.5 1.5 15
    endloop
  endfacet
  facet normal -1 0 0
    outer loop
      vertex 0 0 0
      vertex 0 115 15
      vertex 0 115 0
    endloop
  endfacet
  facet normal -1 0 0
    outer loop
      vertex 0 115 15
      vertex 0 36.5 13
      vertex 0 36.5 15
    endloop
  endfacet
  facet normal 0 0 1
    outer loop
      vertex 0 36.5 15
      vertex 1.5 36.5 15
      vertex 1.5 113.5 15
    endloop
  endfacet
  facet normal 0 0 1
    outer loop
      vertex 0 115 15
      vertex 0 36.5 15
      vertex 1.5 113.5 15
    endloop
  endfacet
  facet normal 0 1 0
    outer loop
      vertex 0 115 0
      vertex 0 115 15
      vertex 70 115 15
    endloop
  endfacet
  facet normal 0 0 1
    outer loop
      vertex 0 115 15
      vertex 1.5 113.5 15
      vertex 68.5 113.5 15
    endloop
  endfacet
  facet normal 1 0 0
    outer loop
      vertex 70 0 0
      vertex 70 115 0
      vertex 70 0 15
    endloop
  endfacet
  facet normal 0 -1 0
    outer loop
      vertex 0 0 15
      vertex 70 0 0
      vertex 70 0 15
    endloop
  endfacet
  facet normal 0 0 1
    outer loop
      vertex 0 0 15
      vertex 70 0 15
      vertex 68.5 1.5 15
    endloop
  endfacet
  facet normal 0 0 1
    outer loop
      vertex 70 0 15
      vertex 70 115 15
      vertex 68.5 1.5 15
    endloop
  endfacet
  facet normal 0 0 -1
    outer loop
      vertex 0 115 0
      vertex 70 115 0
      vertex 70 0 0
    endloop
  endfacet
  facet normal 0 1 0
    outer loop
      vertex 0 115 0
      vertex 70 115 15
      vertex 70 115 0
    endloop
  endfacet
  facet normal 0 0 1
    outer loop
      vertex 0 115 15
      vertex 68.5 113.5 15
      vertex 70 115 15
    endloop
  endfacet
  facet normal 1 0 0
    outer loop
      vertex 70 0 15
      vertex 70 115 0
      vertex 70 115 15
    endloop
  endfacet
  facet normal 0 0 1
    outer loop
      vertex 70 115 15
      vertex 68.5 113.5 15
      vertex 68.5 1.5 15
    endloop
  endfacet
  facet normal 0 0 1
    outer loop
      vertex 1.5 1.5 7
      vertex 3.5 3.5 7
      vertex 1.5 10.5 7
    endloop
  endfacet
  facet normal 0 0 1
    outer loop
      vertex 1.5 10.5 7
      vertex 3.5 3.5 7
      vertex 3.5 10.5 7
    endloop
  endfacet
  facet normal 0 0 1
    outer loop
      vertex 1.5 1.5 7
      vertex 66.5 3.5 7
      vertex 3.5 3.5 7
    endloop
  endfacet
  facet normal 1 0 0
    outer loop
      vertex 1.5 1.5 7
      vertex 1.5 10.5 7
      vertex 1.5 10.5 11
    endloop
  endfacet
  facet normal 1 0 0
    outer loop
      vertex 1.5 1.5 7
      vertex 1.5 10.5 11
      vertex 1.5 15.5 15
    endloop
  endfacet
  facet normal 1 0 0
    outer loop
      vertex 1.5 1.5 7
      vertex 1.5 15.5 15
      vertex 1.5 1.5 15
    endloop
  endfacet
  facet normal 1 0 0
    outer loop
      vertex 1.5 10.5 11
      vertex 1.5 15.5 13
      vertex 1.5 15.5 15
    endloop
  endfacet
  facet normal 1 0 0
    outer loop
      vertex 1.5 10.5 11
      vertex 1.5 41.5 11
      vertex 1.5 15.5 13
    endloop
  endfacet
  facet normal 1 0 0
    outer loop
      vertex 1.5 15.5 13
      vertex 1.5 41.5 11
      vertex 1.5 36.5 13
    endloop
  endfacet
  facet normal 0 1 0
    outer loop
      vertex 1.5 1.5 7
      vertex 1.5 1.5 15
      vertex 68.5 1.5 7
    endloop
  endfacet
  facet normal 0 0 1
    outer loop
      vertex 1.5 41.5 7
      vertex 3.5 41.5 7
      vertex 1.5 113.5 7
    endloop
  endfacet
  facet normal 0 0 1
    outer loop
      vertex 3.5 41.5 7
      vertex 3.5 111.5 7
      vertex 1.5 113.5 7
    endloop
  endfacet
  facet normal 0 0 1
    outer loop
      vertex 1.5 113.5 7
      vertex 3.5 111.5 7
      vertex 68.5 113.5 7
    endloop
  endfacet
  facet normal 1 0 0
    outer loop
      vertex 1.5 41.5 7
      vertex 1.5 113.5 15
      vertex 1.5 41.5 11
    endloop
  endfacet
  facet normal 1 0 0
    outer loop
      vertex 1.5 41.5 11
      vertex 1.5 113.5 15
      vertex 1.5 36.5 13
    endloop
  endfacet
  facet normal 1 0 0
    outer loop
      vertex 1.5 36.5 13
      vertex 1.5 113.5 15
      vertex 1.5 36.5 15
    endloop
  endfacet
  facet normal 1 0 0
    outer loop
      vertex 1.5 41.5 7
      vertex 1.5 113.5 7
      vertex 1.5 113.5 15
    endloop
  endfacet
  facet normal 0 -1 0
    outer loop
      vertex 1.5 113.5 7
      vertex 68.5 113.5 15
      vertex 1.5 113.5 15
    endloop
  endfacet
  facet normal 0 0 1
    outer loop
      vertex 1.5 1.5 7
      vertex 68.5 1.5 7
      vertex 66.5 3.5 7
    endloop
  endfacet
  facet normal 0 0 1
    outer loop
      vertex 66.5 3.5 7
      vertex 68.5 1.5 7
      vertex 66.5 111.5 7
    endloop
  endfacet
  facet normal 0 1 0
    outer loop
      vertex 68.5 1.5 7
      vertex 1.5 1.5 15
      vertex 68.5 1.5 15
    endloop
  endfacet
  facet normal -1 0 0
    outer loop
      vertex 68.5 1.5 7
      vertex 68.5 1.5 15
      vertex 68.5 113.5 7
    endloop
  endfacet
  facet normal 0 0 1
    outer loop
      vertex 3.5 111.5 7
      vertex 66.5 111.5 7
      vertex 68.5 113.5 7
    endloop
  endfacet
  facet normal 0 0 1
    outer loop
      vertex 68.5 1.5 7
      vertex 68.5 113.5 7
      vertex 66.5 111.5 7
    endloop
  endfacet
  facet normal 0 -1 0
    outer loop
      vertex 1.5 113.5 7
      vertex 68.5 113.5 7
      vertex 68.5 113.5 15
    endloop
  endfacet
  facet normal -1 0 0
    outer loop
      vertex 68.5 113.5 7
      vertex 68.5 1.5 15
      vertex 68.5 113.5 15
    endloop
  endfacet
  facet normal 1 0 0
    outer loop
      vertex 3.5 3.5 2
      vertex 3.5 10.5 2
      vertex 3.5 10.5 7
    endloop
  endfacet
  facet normal 1 0 0
    outer loop
      vertex 3.5 3.5 2
      vertex 3.5 10.5 7
      vertex 3.5 3.5 7
    endloop
  endfacet
  facet normal 0 0 1
    outer loop
      vertex 3.5 3.5 2
      vertex 66.5 3.5 2
      vertex 3.5 10.5 2
    endloop
  endfacet
  facet normal 0 0 1
    outer loop
      vertex 3.5 10.5 2
      vertex 66.5 3.5 2
      vertex 3.5 35.3 2
    endloop
  endfacet
  facet normal 0 0 1
    outer loop
      vertex 3.5 35.3 2
      vertex 66.5 3.5 2
      vertex 3.5 41.5 2
    endloop
  endfacet
  facet normal 0 1 0
    outer loop
      vertex 3.5 3.5 2
      vertex 3.5 3.5 7
      vertex 66.5 3.5 7
    endloop
  endfacet
  facet normal 0 0 1
    outer loop
      vertex 3.5 41.5 2
      vertex 66.5 3.5 2
      vertex 3.5 111.5 2
    endloop
  endfacet
  facet normal 1 0 0
    outer loop
      vertex 3.5 41.5 2
      vertex 3.5 111.5 2
      vertex 3.5 41.5 7
    endloop
  endfacet
  facet normal 1 0 0
    outer loop
      vertex 3.5 41.5 7
      vertex 3.5 111.5 2
      vertex 3.5 111.5 7
    endloop
  endfacet
  facet normal 0 -1 0
    outer loop
      vertex 3.5 111.5 2
      vertex 66.5 111.5 2
      vertex 3.5 111.5 7
    endloop
  endfacet
  facet normal 0 1 0
    outer loop
      vertex 3.5 3.5 2
      vertex 66.5 3.5 7
      vertex 66.5 3.5 2
    endloop
  endfacet
  facet normal -1 0 0
    outer loop
      vertex 66.5 3.5 2
      vertex 66.5 3.5 7
      vertex 66.5 111.5 7
    endloop
  endfacet
  facet normal 0 0 1
    outer loop
      vertex 3.5 111.5 2
      vertex 66.5 3.5 2
      vertex 66.5 111.5 2
    endloop
  endfacet
  facet normal 0 -1 0
    outer loop
      vertex 3.5 111.5 7
      vertex 66.5 111.5 2
      vertex 66.5 111.5 7
    endloop
  endfacet
  facet normal -1 0 0
    outer loop
      vertex 66.5 3.5 2
      vertex 66.5 111.5 7
      vertex 66.5 111.5 2
    endloop
  endfacet
  facet normal 0 1 0
    outer loop
      vertex 1.5 10.5 2
      vertex 3.5 10.5 7
      vertex 3.5 10.5 2
    endloop
  endfacet
  facet normal 0 0 1
    outer loop
      vertex 1.5 10.5 2
      vertex 3.5 10.5 2
      vertex 3.5 35.3 2
    endloop
  endfacet
  facet normal 0 1 0
    outer loop
      vertex 1.5 10.5 2
      vertex 1.5 10.5 7
      vertex 3.5 10.5 7
    endloop
  endfacet
  facet normal 1 0 0
    outer loop
      vertex 1.5 10.5 2
      vertex 1.5 41.5 11
      vertex 1.5 10.5 7
    endloop
  endfacet
  facet normal 0 0 1
    outer loop
      vertex 1.5 10.5 2
      vertex 3.5 35.3 2
      vertex 1.5 41.5 2
    endloop
  endfacet
  facet normal 1 0 0
    outer loop
      vertex 1.5 10.5 2
      vertex 1.5 41.5 2
      vertex 1.5 41.5 7
    endloop
  endfacet
  facet normal 0 0 1
    outer loop
      vertex 1.5 41.5 2
      vertex 3.5 35.3 2
      vertex 3.5 41.5 2
    endloop
  endfacet
  facet normal 0 -1 0
    outer loop
      vertex 1.5 41.5 2
      vertex 3.5 41.5 2
      vertex 1.5 41.5 7
    endloop
  endfacet
  facet normal 0 -1 0
    outer loop
      vertex 3.5 41.5 2
      vertex 3.5 41.5 7
      vertex 1.5 41.5 7
    endloop
  endfacet
  facet normal 1 0 0
    outer loop
      vertex 1.5 10.5 2
      vertex 1.5 41.5 7
      vertex 1.5 41.5 11
    endloop
  endfacet
  facet normal 1 0 0
    outer loop
      vertex 1.5 10.5 7
      vertex 1.5 41.5 11
      vertex 1.5 10.5 11
    endloop
  endfacet
  facet normal 0 0 1
    outer loop
      vertex 1.5 15.5 13
      vertex 0 36.5 13
      vertex 0 15.5 13
    endloop
  endfacet
  facet normal 0 1 0
    outer loop
      vertex 1.5 15.5 13
      vertex 0 15.5 13
      vertex 0 15.5 15
    endloop
  endfacet
  facet normal 0 1 0
    outer loop
      vertex 1.5 15.5 13
      vertex 0 15.5 15
      vertex 1.5 15.5 15
    endloop
  endfacet
  facet normal 0 0 1
    outer loop
      vertex 1.5 15.5 13
      vertex 1.5 36.5 13
      vertex 0 36.5 13
    endloop
  endfacet
  facet normal 0 -1 0
    outer loop
      vertex 1.5 36.5 13
      vertex 0 36.5 15
      vertex 0 36.5 13
    endloop
  endfacet
  facet normal 0 -1 0
    outer loop
      vertex 1.5 36.5 13
      vertex 1.5 36.5 15
      vertex 0 36.5 15
    endloop
  endfacet
endsolid OpenSCAD_Model
