solid OpenSCAD_Model
  facet normal -0.8443279255020155 -0.5358267949789957 0
    outer loop
      vertex -5.4608647120308955 -3.967550452974194 0
      vertex -5.915070090296078 -3.251837300186579 5
      vertex -5.915070090296078 -3.251837300186579 0
    endloop
  endfacet
  facet normal -0.7705132427757885 -0.6374239897486904 0
    outer loop
      vertex -5.4608647120308955 -3.967550452974194 0
      vertex -4.920538235094528 -4.620692965018647 0
      vertex -5.4608647120308955 -3.967550452974194 5
    endloop
  endfacet
  facet normal -0.5877852522924726 -0.8090169943749479 0
    outer loop
      vertex -4.302611930803655 -5.200964388736578 0
      vertex -3.616830866108228 -5.699213497138601 0
      vertex -4.302611930803655 -5.200964388736578 5
    endloop
  endfacet
  facet normal -0.6845471059286894 -0.7289686274214109 0
    outer loop
      vertex -4.302611930803655 -5.200964388736578 0
      vertex -4.920538235094528 -4.620692965018647 5
      vertex -4.920538235094528 -4.620692965018647 0
    endloop
  endfacet
  facet normal 0 0 -1
    outer loop
      vertex -6.275991279745697 -2.4848407306215754 0
      vertex -6.53793633761826 -1.6786567383627702 0
      vertex -6.275991279745697 2.4848407306215754 0
    endloop
  endfacet
  facet normal 0 0 -1
    outer loop
      vertex -6.53793633761826 -1.6786567383627702 0
      vertex -6.696774233872726 -0.8459993265590524 0
      vertex -6.53793633761826 1.6786567383627702 0
    endloop
  endfacet
  facet normal 0 0 -1
    outer loop
      vertex -5.915070090296078 -3.251837300186579 0
      vertex -6.275991279745697 -2.4848407306215754 0
      vertex -5.915070090296078 3.251837300186579 0
    endloop
  endfacet
  facet normal 0 0 -1
    outer loop
      vertex -5.4608647120308955 -3.967550452974194 0
      vertex -5.915070090296078 -3.251837300186579 0
      vertex -5.4608647120308955 3.967550452974194 0
    endloop
  endfacet
  facet normal 0 0 -1
    outer loop
      vertex -5.4608647120308955 -3.967550452974194 0
      vertex -4.920538235094528 4.620692965018647 0
      vertex -4.920538235094528 -4.620692965018647 0
    endloop
  endfacet
  facet normal 0 0 -1
    outer loop
      vertex -4.302611930803655 -5.200964388736578 0
      vertex -3.616830866108228 5.699213497138601 0
      vertex -3.616830866108228 -5.699213497138601 0
    endloop
  endfacet
  facet normal 0 0 -1
    outer loop
      vertex -4.302611930803655 -5.200964388736578 0
      vertex -4.920538235094528 -4.620692965018647 0
      vertex -4.302611930803655 5.200964388736578 0
    endloop
  endfacet
  facet normal -0.9048270524660194 -0.4257792915650731 0
    outer loop
      vertex -5.915070090296078 -3.251837300186579 0
      vertex -6.275991279745697 -2.4848407306215754 5
      vertex -6.275991279745697 -2.4848407306215754 0
    endloop
  endfacet
  facet normal -0.9510565162951536 -0.3090169943749473 0
    outer loop
      vertex -6.275991279745697 -2.4848407306215754 0
      vertex -6.53793633761826 -1.6786567383627702 5
      vertex -6.53793633761826 -1.6786567383627702 0
    endloop
  endfacet
  facet normal -0.9822872507286884 -0.18738131458572543 0
    outer loop
      vertex -6.53793633761826 -1.6786567383627702 0
      vertex -6.696774233872726 -0.8459993265590524 5
      vertex -6.696774233872726 -0.8459993265590524 0
    endloop
  endfacet
  facet normal -0.9980267284282716 -0.06279051952931261 0
    outer loop
      vertex -6.696774233872726 -0.8459993265590524 0
      vertex -6.75 0 5
      vertex -6.75 0 0
    endloop
  endfacet
  facet normal -0.36812455268467786 -0.9297764858882513 0
    outer loop
      vertex -2.874010218064239 -6.107582604145632 0
      vertex -2.085864712030895 -6.419631484992286 0
      vertex -2.874010218064239 -6.107582604145632 5
    endloop
  endfacet
  facet normal -0.48175367410171516 -0.8763066800438636 0
    outer loop
      vertex -3.616830866108228 -5.699213497138601 0
      vertex -2.874010218064239 -6.107582604145632 0
      vertex -3.616830866108228 -5.699213497138601 5
    endloop
  endfacet
  facet normal -0.2486898871648548 -0.968583161128631 0
    outer loop
      vertex -2.085864712030895 -6.419631484992286 0
      vertex -1.2648238734536426 -6.630438942418648 0
      vertex -2.085864712030895 -6.419631484992286 5
    endloop
  endfacet
  facet normal -0.12533323356430498 -0.9921147013144778 0
    outer loop
      vertex -1.2648238734536426 -6.630438942418648 0
      vertex -0.4238360068228679 -6.736680416890833 0
      vertex -1.2648238734536426 -6.630438942418648 5
    endloop
  endfacet
  facet normal 0 -1 0
    outer loop
      vertex -0.4238360068228679 -6.736680416890833 0
      vertex 0.4238360068228679 -6.736680416890833 0
      vertex -0.4238360068228679 -6.736680416890833 5
    endloop
  endfacet
  facet normal 0 0 -1
    outer loop
      vertex -3.616830866108228 -5.699213497138601 0
      vertex -2.8740102180642406 6.107582604145631 0
      vertex -2.874010218064239 -6.107582604145632 0
    endloop
  endfacet
  facet normal 0 0 -1
    outer loop
      vertex -2.874010218064239 -6.107582604145632 0
      vertex -2.085864712030895 6.419631484992286 0
      vertex -2.085864712030895 -6.419631484992286 0
    endloop
  endfacet
  facet normal 0 0 -1
    outer loop
      vertex -2.085864712030895 -6.419631484992286 0
      vertex -1.2648238734536408 6.630438942418649 0
      vertex -1.2648238734536426 -6.630438942418648 0
    endloop
  endfacet
  facet normal 0 0 -1
    outer loop
      vertex -1.2648238734536426 -6.630438942418648 0
      vertex -0.4238360068228646 6.736680416890833 0
      vertex -0.4238360068228679 -6.736680416890833 0
    endloop
  endfacet
  facet normal -0.7705132427757885 -0.6374239897486904 0
    outer loop
      vertex -4.920538235094528 -4.620692965018647 0
      vertex -4.920538235094528 -4.620692965018647 5
      vertex -5.4608647120308955 -3.967550452974194 5
    endloop
  endfacet
  facet normal -0.8443279255020155 -0.5358267949789957 0
    outer loop
      vertex -5.4608647120308955 -3.967550452974194 0
      vertex -5.4608647120308955 -3.967550452974194 5
      vertex -5.915070090296078 -3.251837300186579 5
    endloop
  endfacet
  facet normal -0.5877852522924726 -0.8090169943749479 0
    outer loop
      vertex -3.616830866108228 -5.699213497138601 0
      vertex -3.616830866108228 -5.699213497138601 5
      vertex -4.302611930803655 -5.200964388736578 5
    endloop
  endfacet
  facet normal -0.6845471059286894 -0.7289686274214109 0
    outer loop
      vertex -4.302611930803655 -5.200964388736578 0
      vertex -4.302611930803655 -5.200964388736578 5
      vertex -4.920538235094528 -4.620692965018647 5
    endloop
  endfacet
  facet normal -0.9048270524660194 -0.4257792915650731 0
    outer loop
      vertex -5.915070090296078 -3.251837300186579 0
      vertex -5.915070090296078 -3.251837300186579 5
      vertex -6.275991279745697 -2.4848407306215754 5
    endloop
  endfacet
  facet normal -0.9510565162951536 -0.3090169943749473 0
    outer loop
      vertex -6.275991279745697 -2.4848407306215754 0
      vertex -6.275991279745697 -2.4848407306215754 5
      vertex -6.53793633761826 -1.6786567383627702 5
    endloop
  endfacet
  facet normal -0.9822872507286884 -0.18738131458572543 0
    outer loop
      vertex -6.53793633761826 -1.6786567383627702 0
      vertex -6.53793633761826 -1.6786567383627702 5
      vertex -6.696774233872726 -0.8459993265590524 5
    endloop
  endfacet
  facet normal -0.9980267284282716 -0.06279051952931261 0
    outer loop
      vertex -6.696774233872726 -0.8459993265590524 0
      vertex -6.696774233872726 -0.8459993265590524 5
      vertex -6.75 0 5
    endloop
  endfacet
  facet normal 0 0 1
    outer loop
      vertex -6.275991279745697 -2.4848407306215754 5
      vertex -6.275991279745697 2.4848407306215754 5
      vertex -6.53793633761826 -1.6786567383627702 5
    endloop
  endfacet
  facet normal 0 0 1
    outer loop
      vertex -6.53793633761826 -1.6786567383627702 5
      vertex -6.53793633761826 1.6786567383627702 5
      vertex -6.696774233872726 -0.8459993265590524 5
    endloop
  endfacet
  facet normal 0 0 1
    outer loop
      vertex -5.915070090296078 -3.251837300186579 5
      vertex -5.915070090296078 3.251837300186579 5
      vertex -6.275991279745697 -2.4848407306215754 5
    endloop
  endfacet
  facet normal 0 0 1
    outer loop
      vertex -5.4608647120308955 -3.967550452974194 5
      vertex -5.4608647120308955 3.967550452974194 5
      vertex -5.915070090296078 -3.251837300186579 5
    endloop
  endfacet
  facet normal 0 0 1
    outer loop
      vertex -5.4608647120308955 -3.967550452974194 5
      vertex -4.920538235094528 -4.620692965018647 5
      vertex -4.920538235094528 4.620692965018647 5
    endloop
  endfacet
  facet normal 0 0 1
    outer loop
      vertex -4.302611930803655 -5.200964388736578 5
      vertex -3.616830866108228 -5.699213497138601 5
      vertex -3.616830866108228 5.699213497138601 5
    endloop
  endfacet
  facet normal 0 0 1
    outer loop
      vertex -4.302611930803655 -5.200964388736578 5
      vertex -4.302611930803655 5.200964388736578 5
      vertex -4.920538235094528 -4.620692965018647 5
    endloop
  endfacet
  facet normal -0.48175367410171516 -0.8763066800438636 0
    outer loop
      vertex -2.874010218064239 -6.107582604145632 0
      vertex -2.874010218064239 -6.107582604145632 5
      vertex -3.616830866108228 -5.699213497138601 5
    endloop
  endfacet
  facet normal -0.36812455268467786 -0.9297764858882513 0
    outer loop
      vertex -2.085864712030895 -6.419631484992286 0
      vertex -2.085864712030895 -6.419631484992286 5
      vertex -2.874010218064239 -6.107582604145632 5
    endloop
  endfacet
  facet normal -0.2486898871648548 -0.968583161128631 0
    outer loop
      vertex -1.2648238734536426 -6.630438942418648 0
      vertex -1.2648238734536426 -6.630438942418648 5
      vertex -2.085864712030895 -6.419631484992286 5
    endloop
  endfacet
  facet normal -0.12533323356430498 -0.9921147013144778 0
    outer loop
      vertex -0.4238360068228679 -6.736680416890833 0
      vertex -0.4238360068228679 -6.736680416890833 5
      vertex -1.2648238734536426 -6.630438942418648 5
    endloop
  endfacet
  facet normal 0 0 1
    outer loop
      vertex -2.085864712030895 -6.419631484992286 5
      vertex -1.2648238734536426 -6.630438942418648 5
      vertex -2 -2 5
    endloop
  endfacet
  facet normal 0 0 1
    outer loop
      vertex -1.2648238734536426 -6.630438942418648 5
      vertex -0.4238360068228679 -6.736680416890833 5
      vertex -2 -2 5
    endloop
  endfacet
  facet normal 0 0 1
    outer loop
      vertex -0.4238360068228679 -6.736680416890833 5
      vertex 0.4238360068228679 -6.736680416890833 5
      vertex -2 -2 5
    endloop
  endfacet
  facet normal 0 0 1
    outer loop
      vertex 0.4238360068228679 -6.736680416890833 5
      vertex 1.2648238734536426 -6.630438942418648 5
      vertex -2 -2 5
    endloop
  endfacet
  facet normal 0 0 1
    outer loop
      vertex -3.616830866108228 -5.699213497138601 5
      vertex -2.874010218064239 -6.107582604145632 5
      vertex -2.8740102180642406 6.107582604145631 5
    endloop
  endfacet
  facet normal 0 0 1
    outer loop
      vertex -2.874010218064239 -6.107582604145632 5
      vertex -2.085864712030895 -6.419631484992286 5
      vertex -2.085864712030895 6.419631484992286 5
    endloop
  endfacet
  facet normal 0 0 1
    outer loop
      vertex -2.085864712030895 -6.419631484992286 5
      vertex -2 -2 5
      vertex -2.085864712030895 6.419631484992286 5
    endloop
  endfacet
  facet normal 0 0 -1
    outer loop
      vertex -6.696774233872726 -0.8459993265590524 0
      vertex -6.75 0 0
      vertex -6.696774233872726 0.8459993265590524 0
    endloop
  endfacet
  facet normal 0 0 -1
    outer loop
      vertex -6.696774233872726 -0.8459993265590524 0
      vertex -6.696774233872726 0.8459993265590524 0
      vertex -6.53793633761826 1.6786567383627702 0
    endloop
  endfacet
  facet normal 0 0 -1
    outer loop
      vertex -6.53793633761826 -1.6786567383627702 0
      vertex -6.53793633761826 1.6786567383627702 0
      vertex -6.275991279745697 2.4848407306215754 0
    endloop
  endfacet
  facet normal 0 0 -1
    outer loop
      vertex -6.275991279745697 -2.4848407306215754 0
      vertex -6.275991279745697 2.4848407306215754 0
      vertex -5.915070090296078 3.251837300186579 0
    endloop
  endfacet
  facet normal 0 0 -1
    outer loop
      vertex -5.915070090296078 -3.251837300186579 0
      vertex -5.915070090296078 3.251837300186579 0
      vertex -5.4608647120308955 3.967550452974194 0
    endloop
  endfacet
  facet normal 0 0 -1
    outer loop
      vertex -5.4608647120308955 -3.967550452974194 0
      vertex -5.4608647120308955 3.967550452974194 0
      vertex -4.920538235094528 4.620692965018647 0
    endloop
  endfacet
  facet normal 0 0 -1
    outer loop
      vertex -4.920538235094528 -4.620692965018647 0
      vertex -4.920538235094528 4.620692965018647 0
      vertex -4.302611930803655 5.200964388736578 0
    endloop
  endfacet
  facet normal 0 0 -1
    outer loop
      vertex -4.302611930803655 -5.200964388736578 0
      vertex -4.302611930803655 5.200964388736578 0
      vertex -3.616830866108228 5.699213497138601 0
    endloop
  endfacet
  facet normal -0.9980267284282716 0.06279051952931261 0
    outer loop
      vertex -6.75 0 0
      vertex -6.696774233872726 0.8459993265590524 5
      vertex -6.696774233872726 0.8459993265590524 0
    endloop
  endfacet
  facet normal -0.9822872507286884 0.18738131458572543 0
    outer loop
      vertex -6.696774233872726 0.8459993265590524 0
      vertex -6.53793633761826 1.6786567383627702 5
      vertex -6.53793633761826 1.6786567383627702 0
    endloop
  endfacet
  facet normal -0.9510565162951536 0.3090169943749473 0
    outer loop
      vertex -6.53793633761826 1.6786567383627702 0
      vertex -6.275991279745697 2.4848407306215754 5
      vertex -6.275991279745697 2.4848407306215754 0
    endloop
  endfacet
  facet normal -0.9048270524660194 0.4257792915650731 0
    outer loop
      vertex -6.275991279745697 2.4848407306215754 0
      vertex -5.915070090296078 3.251837300186579 5
      vertex -5.915070090296078 3.251837300186579 0
    endloop
  endfacet
  facet normal -0.8443279255020155 0.5358267949789957 0
    outer loop
      vertex -5.915070090296078 3.251837300186579 0
      vertex -5.4608647120308955 3.967550452974194 5
      vertex -5.4608647120308955 3.967550452974194 0
    endloop
  endfacet
  facet normal -0.7705132427757885 0.6374239897486904 0
    outer loop
      vertex -5.4608647120308955 3.967550452974194 0
      vertex -4.920538235094528 4.620692965018647 5
      vertex -4.920538235094528 4.620692965018647 0
    endloop
  endfacet
  facet normal -0.6845471059286894 0.7289686274214109 0
    outer loop
      vertex -4.920538235094528 4.620692965018647 0
      vertex -4.302611930803655 5.200964388736578 5
      vertex -4.302611930803655 5.200964388736578 0
    endloop
  endfacet
  facet normal -0.5877852522924726 0.8090169943749479 0
    outer loop
      vertex -4.302611930803655 5.200964388736578 0
      vertex -3.616830866108228 5.699213497138601 5
      vertex -3.616830866108228 5.699213497138601 0
    endloop
  endfacet
  facet normal 0 0 -1
    outer loop
      vertex -3.616830866108228 -5.699213497138601 0
      vertex -3.616830866108228 5.699213497138601 0
      vertex -2.8740102180642406 6.107582604145631 0
    endloop
  endfacet
  facet normal 0 0 -1
    outer loop
      vertex -2.874010218064239 -6.107582604145632 0
      vertex -2.8740102180642406 6.107582604145631 0
      vertex -2.085864712030895 6.419631484992286 0
    endloop
  endfacet
  facet normal 0 0 -1
    outer loop
      vertex -2.085864712030895 -6.419631484992286 0
      vertex -2.085864712030895 6.419631484992286 0
      vertex -1.2648238734536408 6.630438942418649 0
    endloop
  endfacet
  facet normal 0 0 -1
    outer loop
      vertex -1.2648238734536426 -6.630438942418648 0
      vertex -1.2648238734536408 6.630438942418649 0
      vertex -0.4238360068228646 6.736680416890833 0
    endloop
  endfacet
  facet normal 0 0 -1
    outer loop
      vertex -0.4238360068228679 -6.736680416890833 0
      vertex -0.4238360068228646 6.736680416890833 0
      vertex 0.4238360068228646 6.736680416890833 0
    endloop
  endfacet
  facet normal -0.4817536741017153 0.8763066800438637 0
    outer loop
      vertex -3.616830866108228 5.699213497138601 0
      vertex -2.8740102180642406 6.107582604145631 5
      vertex -2.8740102180642406 6.107582604145631 0
    endloop
  endfacet
  facet normal -0.3681245526846781 0.9297764858882513 0
    outer loop
      vertex -2.8740102180642406 6.107582604145631 0
      vertex -2.085864712030895 6.419631484992286 5
      vertex -2.085864712030895 6.419631484992286 0
    endloop
  endfacet
  facet normal -0.24868988716485527 0.9685831611286309 0
    outer loop
      vertex -2.085864712030895 6.419631484992286 0
      vertex -1.2648238734536408 6.630438942418649 5
      vertex -1.2648238734536408 6.630438942418649 0
    endloop
  endfacet
  facet normal -0.1253332335643037 0.9921147013144779 0
    outer loop
      vertex -1.2648238734536408 6.630438942418649 0
      vertex -0.4238360068228646 6.736680416890833 5
      vertex -0.4238360068228646 6.736680416890833 0
    endloop
  endfacet
  facet normal -0.9980267284282716 0.06279051952931261 0
    outer loop
      vertex -6.75 0 0
      vertex -6.75 0 5
      vertex -6.696774233872726 0.8459993265590524 5
    endloop
  endfacet
  facet normal -0.9822872507286884 0.18738131458572543 0
    outer loop
      vertex -6.696774233872726 0.8459993265590524 0
      vertex -6.696774233872726 0.8459993265590524 5
      vertex -6.53793633761826 1.6786567383627702 5
    endloop
  endfacet
  facet normal -0.9510565162951536 0.3090169943749473 0
    outer loop
      vertex -6.53793633761826 1.6786567383627702 0
      vertex -6.53793633761826 1.6786567383627702 5
      vertex -6.275991279745697 2.4848407306215754 5
    endloop
  endfacet
  facet normal -0.9048270524660194 0.4257792915650731 0
    outer loop
      vertex -6.275991279745697 2.4848407306215754 0
      vertex -6.275991279745697 2.4848407306215754 5
      vertex -5.915070090296078 3.251837300186579 5
    endloop
  endfacet
  facet normal 0 0 1
    outer loop
      vertex -6.696774233872726 -0.8459993265590524 5
      vertex -6.696774233872726 0.8459993265590524 5
      vertex -6.75 0 5
    endloop
  endfacet
  facet normal 0 0 1
    outer loop
      vertex -6.696774233872726 -0.8459993265590524 5
      vertex -6.53793633761826 1.6786567383627702 5
      vertex -6.696774233872726 0.8459993265590524 5
    endloop
  endfacet
  facet normal 0 0 1
    outer loop
      vertex -6.53793633761826 -1.6786567383627702 5
      vertex -6.275991279745697 2.4848407306215754 5
      vertex -6.53793633761826 1.6786567383627702 5
    endloop
  endfacet
  facet normal 0 0 1
    outer loop
      vertex -6.275991279745697 -2.4848407306215754 5
      vertex -5.915070090296078 3.251837300186579 5
      vertex -6.275991279745697 2.4848407306215754 5
    endloop
  endfacet
  facet normal 0 0 1
    outer loop
      vertex -5.915070090296078 -3.251837300186579 5
      vertex -5.4608647120308955 3.967550452974194 5
      vertex -5.915070090296078 3.251837300186579 5
    endloop
  endfacet
  facet normal 0 0 1
    outer loop
      vertex -5.4608647120308955 -3.967550452974194 5
      vertex -4.920538235094528 4.620692965018647 5
      vertex -5.4608647120308955 3.967550452974194 5
    endloop
  endfacet
  facet normal 0 0 1
    outer loop
      vertex -4.920538235094528 -4.620692965018647 5
      vertex -4.302611930803655 5.200964388736578 5
      vertex -4.920538235094528 4.620692965018647 5
    endloop
  endfacet
  facet normal 0 0 1
    outer loop
      vertex -4.302611930803655 -5.200964388736578 5
      vertex -3.616830866108228 5.699213497138601 5
      vertex -4.302611930803655 5.200964388736578 5
    endloop
  endfacet
  facet normal -0.8443279255020155 0.5358267949789957 0
    outer loop
      vertex -5.915070090296078 3.251837300186579 0
      vertex -5.915070090296078 3.251837300186579 5
      vertex -5.4608647120308955 3.967550452974194 5
    endloop
  endfacet
  facet normal -0.7705132427757885 0.6374239897486904 0
    outer loop
      vertex -5.4608647120308955 3.967550452974194 0
      vertex -5.4608647120308955 3.967550452974194 5
      vertex -4.920538235094528 4.620692965018647 5
    endloop
  endfacet
  facet normal -0.6845471059286894 0.7289686274214109 0
    outer loop
      vertex -4.920538235094528 4.620692965018647 0
      vertex -4.920538235094528 4.620692965018647 5
      vertex -4.302611930803655 5.200964388736578 5
    endloop
  endfacet
  facet normal -0.5877852522924726 0.8090169943749479 0
    outer loop
      vertex -4.302611930803655 5.200964388736578 0
      vertex -4.302611930803655 5.200964388736578 5
      vertex -3.616830866108228 5.699213497138601 5
    endloop
  endfacet
  facet normal 0 0 1
    outer loop
      vertex -3.616830866108228 -5.699213497138601 5
      vertex -2.8740102180642406 6.107582604145631 5
      vertex -3.616830866108228 5.699213497138601 5
    endloop
  endfacet
  facet normal 0 0 1
    outer loop
      vertex -2.874010218064239 -6.107582604145632 5
      vertex -2.085864712030895 6.419631484992286 5
      vertex -2.8740102180642406 6.107582604145631 5
    endloop
  endfacet
  facet normal 0 0 1
    outer loop
      vertex -2.085864712030895 6.419631484992286 5
      vertex -2 -2 5
      vertex -2 2 5
    endloop
  endfacet
  facet normal -0.4817536741017153 0.8763066800438637 0
    outer loop
      vertex -3.616830866108228 5.699213497138601 0
      vertex -3.616830866108228 5.699213497138601 5
      vertex -2.8740102180642406 6.107582604145631 5
    endloop
  endfacet
  facet normal -0.3681245526846781 0.9297764858882513 0
    outer loop
      vertex -2.8740102180642406 6.107582604145631 0
      vertex -2.8740102180642406 6.107582604145631 5
      vertex -2.085864712030895 6.419631484992286 5
    endloop
  endfacet
  facet normal -0.24868988716485527 0.9685831611286309 0
    outer loop
      vertex -2.085864712030895 6.419631484992286 0
      vertex -2.085864712030895 6.419631484992286 5
      vertex -1.2648238734536408 6.630438942418649 5
    endloop
  endfacet
  facet normal -0.1253332335643037 0.9921147013144779 0
    outer loop
      vertex -1.2648238734536408 6.630438942418649 0
      vertex -1.2648238734536408 6.630438942418649 5
      vertex -0.4238360068228646 6.736680416890833 5
    endloop
  endfacet
  facet normal 0 1 0
    outer loop
      vertex -0.4238360068228646 6.736680416890833 0
      vertex -0.4238360068228646 6.736680416890833 5
      vertex 0.4238360068228646 6.736680416890833 5
    endloop
  endfacet
  facet normal 0 0 1
    outer loop
      vertex -2.085864712030895 6.419631484992286 5
      vertex -2 2 5
      vertex 2 2 5
    endloop
  endfacet
  facet normal 0 0 1
    outer loop
      vertex -2.085864712030895 6.419631484992286 5
      vertex 2 2 5
      vertex -1.2648238734536408 6.630438942418649 5
    endloop
  endfacet
  facet normal 0.12533323356430498 -0.9921147013144778 0
    outer loop
      vertex 0.4238360068228679 -6.736680416890833 0
      vertex 1.2648238734536426 -6.630438942418648 0
      vertex 0.4238360068228679 -6.736680416890833 5
    endloop
  endfacet
  facet normal 0.2486898871648548 -0.968583161128631 0
    outer loop
      vertex 1.2648238734536426 -6.630438942418648 0
      vertex 2.085864712030895 -6.419631484992286 0
      vertex 1.2648238734536426 -6.630438942418648 5
    endloop
  endfacet
  facet normal 0.36812455268467786 -0.9297764858882513 0
    outer loop
      vertex 2.085864712030895 -6.419631484992286 0
      vertex 2.874010218064239 -6.107582604145632 0
      vertex 2.085864712030895 -6.419631484992286 5
    endloop
  endfacet
  facet normal 0.48175367410171455 -0.876306680043864 0
    outer loop
      vertex 2.874010218064239 -6.107582604145632 0
      vertex 3.6168308661082245 -5.6992134971386035 0
      vertex 2.874010218064239 -6.107582604145632 5
    endloop
  endfacet
  facet normal 0 0 -1
    outer loop
      vertex -0.4238360068228679 -6.736680416890833 0
      vertex 0.4238360068228646 6.736680416890833 0
      vertex 0.4238360068228679 -6.736680416890833 0
    endloop
  endfacet
  facet normal 0 0 -1
    outer loop
      vertex 0.4238360068228679 -6.736680416890833 0
      vertex 1.2648238734536408 6.630438942418649 0
      vertex 1.2648238734536426 -6.630438942418648 0
    endloop
  endfacet
  facet normal 0 0 -1
    outer loop
      vertex 1.2648238734536426 -6.630438942418648 0
      vertex 2.085864712030895 6.419631484992286 0
      vertex 2.085864712030895 -6.419631484992286 0
    endloop
  endfacet
  facet normal 0 0 -1
    outer loop
      vertex 2.085864712030895 -6.419631484992286 0
      vertex 2.8740102180642406 6.107582604145631 0
      vertex 2.874010218064239 -6.107582604145632 0
    endloop
  endfacet
  facet normal 0 0 -1
    outer loop
      vertex 2.874010218064239 -6.107582604145632 0
      vertex 3.6168308661082276 5.699213497138602 0
      vertex 3.6168308661082245 -5.6992134971386035 0
    endloop
  endfacet
  facet normal 0.587785252292473 -0.8090169943749476 0
    outer loop
      vertex 3.6168308661082245 -5.6992134971386035 0
      vertex 4.302611930803657 -5.200964388736576 0
      vertex 3.6168308661082245 -5.6992134971386035 5
    endloop
  endfacet
  facet normal 0.6845471059286893 -0.7289686274214109 0
    outer loop
      vertex 4.302611930803657 -5.200964388736576 0
      vertex 4.920538235094528 -4.620692965018647 0
      vertex 4.302611930803657 -5.200964388736576 5
    endloop
  endfacet
  facet normal 0.7705132427757885 -0.6374239897486904 0
    outer loop
      vertex 4.920538235094528 -4.620692965018647 0
      vertex 5.4608647120308955 -3.967550452974194 0
      vertex 4.920538235094528 -4.620692965018647 5
    endloop
  endfacet
  facet normal 0.8443279255020155 -0.5358267949789957 0
    outer loop
      vertex 5.4608647120308955 -3.967550452974194 0
      vertex 5.915070090296078 -3.251837300186579 0
      vertex 5.4608647120308955 -3.967550452974194 5
    endloop
  endfacet
  facet normal 0 0 -1
    outer loop
      vertex 3.6168308661082245 -5.6992134971386035 0
      vertex 4.302611930803656 5.200964388736577 0
      vertex 4.302611930803657 -5.200964388736576 0
    endloop
  endfacet
  facet normal 0 0 -1
    outer loop
      vertex 4.302611930803657 -5.200964388736576 0
      vertex 4.920538235094528 4.620692965018649 0
      vertex 4.920538235094528 -4.620692965018647 0
    endloop
  endfacet
  facet normal 0 0 -1
    outer loop
      vertex 4.920538235094528 -4.620692965018647 0
      vertex 5.4608647120308955 3.967550452974194 0
      vertex 5.4608647120308955 -3.967550452974194 0
    endloop
  endfacet
  facet normal 0 0 -1
    outer loop
      vertex 5.4608647120308955 -3.967550452974194 0
      vertex 5.915070090296079 3.2518373001865784 0
      vertex 5.915070090296078 -3.251837300186579 0
    endloop
  endfacet
  facet normal 0 0 -1
    outer loop
      vertex 5.915070090296078 -3.251837300186579 0
      vertex 6.275991279745696 2.4848407306215763 0
      vertex 6.275991279745696 -2.484840730621579 0
    endloop
  endfacet
  facet normal 0 0 -1
    outer loop
      vertex 6.275991279745696 -2.484840730621579 0
      vertex 6.53793633761826 1.67865673836277 0
      vertex 6.537936337618261 -1.6786567383627675 0
    endloop
  endfacet
  facet normal 0 0 -1
    outer loop
      vertex 6.537936337618261 -1.6786567383627675 0
      vertex 6.696774233872726 0.8459993265590537 0
      vertex 6.696774233872726 -0.8459993265590524 0
    endloop
  endfacet
  facet normal 0.904827052466019 -0.4257792915650738 0
    outer loop
      vertex 5.915070090296078 -3.251837300186579 0
      vertex 6.275991279745696 -2.484840730621579 0
      vertex 5.915070090296078 -3.251837300186579 5
    endloop
  endfacet
  facet normal 0.9510565162951538 -0.3090169943749471 0
    outer loop
      vertex 6.275991279745696 -2.484840730621579 0
      vertex 6.537936337618261 -1.6786567383627675 0
      vertex 6.275991279745696 -2.484840730621579 5
    endloop
  endfacet
  facet normal 0.9822872507286886 -0.18738131458572502 0
    outer loop
      vertex 6.537936337618261 -1.6786567383627675 0
      vertex 6.696774233872726 -0.8459993265590524 0
      vertex 6.537936337618261 -1.6786567383627675 5
    endloop
  endfacet
  facet normal 0.9980267284282716 -0.06279051952931261 0
    outer loop
      vertex 6.696774233872726 -0.8459993265590524 0
      vertex 6.75 0 0
      vertex 6.696774233872726 -0.8459993265590524 5
    endloop
  endfacet
  facet normal 0 -1 0
    outer loop
      vertex -0.4238360068228679 -6.736680416890833 5
      vertex 0.4238360068228679 -6.736680416890833 0
      vertex 0.4238360068228679 -6.736680416890833 5
    endloop
  endfacet
  facet normal 0.12533323356430498 -0.9921147013144778 0
    outer loop
      vertex 1.2648238734536426 -6.630438942418648 0
      vertex 1.2648238734536426 -6.630438942418648 5
      vertex 0.4238360068228679 -6.736680416890833 5
    endloop
  endfacet
  facet normal 0.2486898871648548 -0.968583161128631 0
    outer loop
      vertex 2.085864712030895 -6.419631484992286 0
      vertex 2.085864712030895 -6.419631484992286 5
      vertex 1.2648238734536426 -6.630438942418648 5
    endloop
  endfacet
  facet normal 0.36812455268467786 -0.9297764858882513 0
    outer loop
      vertex 2.874010218064239 -6.107582604145632 0
      vertex 2.874010218064239 -6.107582604145632 5
      vertex 2.085864712030895 -6.419631484992286 5
    endloop
  endfacet
  facet normal 0.48175367410171455 -0.876306680043864 0
    outer loop
      vertex 3.6168308661082245 -5.6992134971386035 0
      vertex 3.6168308661082245 -5.6992134971386035 5
      vertex 2.874010218064239 -6.107582604145632 5
    endloop
  endfacet
  facet normal 0 0 1
    outer loop
      vertex 1.2648238734536426 -6.630438942418648 5
      vertex 2.085864712030895 -6.419631484992286 5
      vertex -2 -2 5
    endloop
  endfacet
  facet normal 0 0 1
    outer loop
      vertex 2.085864712030895 -6.419631484992286 5
      vertex 2 -2 5
      vertex -2 -2 5
    endloop
  endfacet
  facet normal 0 0 1
    outer loop
      vertex 2.085864712030895 -6.419631484992286 5
      vertex 2 2 5
      vertex 2 -2 5
    endloop
  endfacet
  facet normal 0 0 1
    outer loop
      vertex 2.085864712030895 -6.419631484992286 5
      vertex 2.874010218064239 -6.107582604145632 5
      vertex 2.8740102180642406 6.107582604145631 5
    endloop
  endfacet
  facet normal 0 0 1
    outer loop
      vertex 2.874010218064239 -6.107582604145632 5
      vertex 3.6168308661082245 -5.6992134971386035 5
      vertex 3.6168308661082276 5.699213497138602 5
    endloop
  endfacet
  facet normal 0.587785252292473 -0.8090169943749476 0
    outer loop
      vertex 4.302611930803657 -5.200964388736576 0
      vertex 4.302611930803657 -5.200964388736576 5
      vertex 3.6168308661082245 -5.6992134971386035 5
    endloop
  endfacet
  facet normal 0.6845471059286893 -0.7289686274214109 0
    outer loop
      vertex 4.920538235094528 -4.620692965018647 0
      vertex 4.920538235094528 -4.620692965018647 5
      vertex 4.302611930803657 -5.200964388736576 5
    endloop
  endfacet
  facet normal 0.7705132427757885 -0.6374239897486904 0
    outer loop
      vertex 5.4608647120308955 -3.967550452974194 0
      vertex 5.4608647120308955 -3.967550452974194 5
      vertex 4.920538235094528 -4.620692965018647 5
    endloop
  endfacet
  facet normal 0.8443279255020155 -0.5358267949789957 0
    outer loop
      vertex 5.915070090296078 -3.251837300186579 0
      vertex 5.915070090296078 -3.251837300186579 5
      vertex 5.4608647120308955 -3.967550452974194 5
    endloop
  endfacet
  facet normal 0.904827052466019 -0.4257792915650738 0
    outer loop
      vertex 6.275991279745696 -2.484840730621579 0
      vertex 6.275991279745696 -2.484840730621579 5
      vertex 5.915070090296078 -3.251837300186579 5
    endloop
  endfacet
  facet normal 0.9510565162951538 -0.3090169943749471 0
    outer loop
      vertex 6.537936337618261 -1.6786567383627675 0
      vertex 6.537936337618261 -1.6786567383627675 5
      vertex 6.275991279745696 -2.484840730621579 5
    endloop
  endfacet
  facet normal 0.9822872507286886 -0.18738131458572502 0
    outer loop
      vertex 6.696774233872726 -0.8459993265590524 0
      vertex 6.696774233872726 -0.8459993265590524 5
      vertex 6.537936337618261 -1.6786567383627675 5
    endloop
  endfacet
  facet normal 0.9980267284282716 -0.06279051952931261 0
    outer loop
      vertex 6.696774233872726 -0.8459993265590524 5
      vertex 6.75 0 0
      vertex 6.75 0 5
    endloop
  endfacet
  facet normal 0 0 1
    outer loop
      vertex 3.6168308661082245 -5.6992134971386035 5
      vertex 4.302611930803657 -5.200964388736576 5
      vertex 4.302611930803656 5.200964388736577 5
    endloop
  endfacet
  facet normal 0 0 1
    outer loop
      vertex 4.302611930803657 -5.200964388736576 5
      vertex 4.920538235094528 -4.620692965018647 5
      vertex 4.920538235094528 4.620692965018649 5
    endloop
  endfacet
  facet normal 0 0 1
    outer loop
      vertex 4.920538235094528 -4.620692965018647 5
      vertex 5.4608647120308955 -3.967550452974194 5
      vertex 5.4608647120308955 3.967550452974194 5
    endloop
  endfacet
  facet normal 0 0 1
    outer loop
      vertex 5.4608647120308955 -3.967550452974194 5
      vertex 5.915070090296078 -3.251837300186579 5
      vertex 5.915070090296079 3.2518373001865784 5
    endloop
  endfacet
  facet normal 0 0 1
    outer loop
      vertex 5.915070090296078 -3.251837300186579 5
      vertex 6.275991279745696 -2.484840730621579 5
      vertex 6.275991279745696 2.4848407306215763 5
    endloop
  endfacet
  facet normal 0 0 1
    outer loop
      vertex 6.275991279745696 -2.484840730621579 5
      vertex 6.537936337618261 -1.6786567383627675 5
      vertex 6.53793633761826 1.67865673836277 5
    endloop
  endfacet
  facet normal 0 0 1
    outer loop
      vertex 6.537936337618261 -1.6786567383627675 5
      vertex 6.696774233872726 -0.8459993265590524 5
      vertex 6.696774233872726 0.8459993265590537 5
    endloop
  endfacet
  facet normal 0 0 -1
    outer loop
      vertex 0.4238360068228679 -6.736680416890833 0
      vertex 0.4238360068228646 6.736680416890833 0
      vertex 1.2648238734536408 6.630438942418649 0
    endloop
  endfacet
  facet normal 0 0 -1
    outer loop
      vertex 1.2648238734536426 -6.630438942418648 0
      vertex 1.2648238734536408 6.630438942418649 0
      vertex 2.085864712030895 6.419631484992286 0
    endloop
  endfacet
  facet normal 0 0 -1
    outer loop
      vertex 2.085864712030895 -6.419631484992286 0
      vertex 2.085864712030895 6.419631484992286 0
      vertex 2.8740102180642406 6.107582604145631 0
    endloop
  endfacet
  facet normal 0 0 -1
    outer loop
      vertex 2.874010218064239 -6.107582604145632 0
      vertex 2.8740102180642406 6.107582604145631 0
      vertex 3.6168308661082276 5.699213497138602 0
    endloop
  endfacet
  facet normal 0 1 0
    outer loop
      vertex -0.4238360068228646 6.736680416890833 0
      vertex 0.4238360068228646 6.736680416890833 5
      vertex 0.4238360068228646 6.736680416890833 0
    endloop
  endfacet
  facet normal 0.1253332335643037 0.9921147013144779 0
    outer loop
      vertex 0.4238360068228646 6.736680416890833 0
      vertex 1.2648238734536408 6.630438942418649 5
      vertex 1.2648238734536408 6.630438942418649 0
    endloop
  endfacet
  facet normal 0.24868988716485527 0.9685831611286309 0
    outer loop
      vertex 1.2648238734536408 6.630438942418649 0
      vertex 2.085864712030895 6.419631484992286 5
      vertex 2.085864712030895 6.419631484992286 0
    endloop
  endfacet
  facet normal 0.48175367410171466 0.8763066800438639 0
    outer loop
      vertex 2.8740102180642406 6.107582604145631 0
      vertex 3.6168308661082276 5.699213497138602 5
      vertex 3.6168308661082276 5.699213497138602 0
    endloop
  endfacet
  facet normal 0.3681245526846781 0.9297764858882513 0
    outer loop
      vertex 2.085864712030895 6.419631484992286 0
      vertex 2.8740102180642406 6.107582604145631 5
      vertex 2.8740102180642406 6.107582604145631 0
    endloop
  endfacet
  facet normal 0 0 -1
    outer loop
      vertex 4.302611930803657 -5.200964388736576 0
      vertex 4.302611930803656 5.200964388736577 0
      vertex 4.920538235094528 4.620692965018649 0
    endloop
  endfacet
  facet normal 0 0 -1
    outer loop
      vertex 3.6168308661082245 -5.6992134971386035 0
      vertex 3.6168308661082276 5.699213497138602 0
      vertex 4.302611930803656 5.200964388736577 0
    endloop
  endfacet
  facet normal 0 0 -1
    outer loop
      vertex 4.920538235094528 -4.620692965018647 0
      vertex 4.920538235094528 4.620692965018649 0
      vertex 5.4608647120308955 3.967550452974194 0
    endloop
  endfacet
  facet normal 0 0 -1
    outer loop
      vertex 5.4608647120308955 -3.967550452974194 0
      vertex 5.4608647120308955 3.967550452974194 0
      vertex 5.915070090296079 3.2518373001865784 0
    endloop
  endfacet
  facet normal 0 0 -1
    outer loop
      vertex 5.915070090296078 -3.251837300186579 0
      vertex 5.915070090296079 3.2518373001865784 0
      vertex 6.275991279745696 2.4848407306215763 0
    endloop
  endfacet
  facet normal 0 0 -1
    outer loop
      vertex 6.696774233872726 -0.8459993265590524 0
      vertex 6.696774233872726 0.8459993265590537 0
      vertex 6.75 0 0
    endloop
  endfacet
  facet normal 0 0 -1
    outer loop
      vertex 6.537936337618261 -1.6786567383627675 0
      vertex 6.53793633761826 1.67865673836277 0
      vertex 6.696774233872726 0.8459993265590537 0
    endloop
  endfacet
  facet normal 0 0 -1
    outer loop
      vertex 6.275991279745696 -2.484840730621579 0
      vertex 6.275991279745696 2.4848407306215763 0
      vertex 6.53793633761826 1.67865673836277 0
    endloop
  endfacet
  facet normal 0.9980267284282716 0.06279051952931253 0
    outer loop
      vertex 6.75 0 0
      vertex 6.696774233872726 0.8459993265590537 0
      vertex 6.75 0 5
    endloop
  endfacet
  facet normal 0.9822872507286884 0.18738131458572577 0
    outer loop
      vertex 6.696774233872726 0.8459993265590537 0
      vertex 6.53793633761826 1.67865673836277 0
      vertex 6.696774233872726 0.8459993265590537 5
    endloop
  endfacet
  facet normal 0.9510565162951533 0.30901699437494784 0
    outer loop
      vertex 6.53793633761826 1.67865673836277 0
      vertex 6.275991279745696 2.4848407306215763 0
      vertex 6.53793633761826 1.67865673836277 5
    endloop
  endfacet
  facet normal 0.9048270524660199 0.425779291565072 0
    outer loop
      vertex 6.275991279745696 2.4848407306215763 0
      vertex 5.915070090296079 3.2518373001865784 0
      vertex 6.275991279745696 2.4848407306215763 5
    endloop
  endfacet
  facet normal 0.6845471059286883 0.728968627421412 0
    outer loop
      vertex 4.920538235094528 4.620692965018649 0
      vertex 4.302611930803656 5.200964388736577 0
      vertex 4.920538235094528 4.620692965018649 5
    endloop
  endfacet
  facet normal 0.5877852522924731 0.8090169943749475 0
    outer loop
      vertex 3.6168308661082276 5.699213497138602 0
      vertex 4.302611930803656 5.200964388736577 5
      vertex 4.302611930803656 5.200964388736577 0
    endloop
  endfacet
  facet normal 0.7705132427757895 0.6374239897486894 0
    outer loop
      vertex 4.920538235094528 4.620692965018649 0
      vertex 5.4608647120308955 3.967550452974194 5
      vertex 5.4608647120308955 3.967550452974194 0
    endloop
  endfacet
  facet normal 0.8443279255020154 0.5358267949789962 0
    outer loop
      vertex 5.915070090296079 3.2518373001865784 0
      vertex 5.4608647120308955 3.967550452974194 0
      vertex 5.915070090296079 3.2518373001865784 5
    endloop
  endfacet
  facet normal 0 0 1
    outer loop
      vertex 2.085864712030895 -6.419631484992286 5
      vertex 2.085864712030895 6.419631484992286 5
      vertex 2 2 5
    endloop
  endfacet
  facet normal 0 0 1
    outer loop
      vertex 2.085864712030895 -6.419631484992286 5
      vertex 2.8740102180642406 6.107582604145631 5
      vertex 2.085864712030895 6.419631484992286 5
    endloop
  endfacet
  facet normal 0 0 1
    outer loop
      vertex 2.874010218064239 -6.107582604145632 5
      vertex 3.6168308661082276 5.699213497138602 5
      vertex 2.8740102180642406 6.107582604145631 5
    endloop
  endfacet
  facet normal 0.1253332335643037 0.9921147013144779 0
    outer loop
      vertex 0.4238360068228646 6.736680416890833 0
      vertex 0.4238360068228646 6.736680416890833 5
      vertex 1.2648238734536408 6.630438942418649 5
    endloop
  endfacet
  facet normal 0.24868988716485527 0.9685831611286309 0
    outer loop
      vertex 1.2648238734536408 6.630438942418649 0
      vertex 1.2648238734536408 6.630438942418649 5
      vertex 2.085864712030895 6.419631484992286 5
    endloop
  endfacet
  facet normal 0.3681245526846781 0.9297764858882513 0
    outer loop
      vertex 2.085864712030895 6.419631484992286 0
      vertex 2.085864712030895 6.419631484992286 5
      vertex 2.8740102180642406 6.107582604145631 5
    endloop
  endfacet
  facet normal 0.48175367410171466 0.8763066800438639 0
    outer loop
      vertex 2.8740102180642406 6.107582604145631 0
      vertex 2.8740102180642406 6.107582604145631 5
      vertex 3.6168308661082276 5.699213497138602 5
    endloop
  endfacet
  facet normal 0 0 1
    outer loop
      vertex -1.2648238734536408 6.630438942418649 5
      vertex 2 2 5
      vertex -0.4238360068228646 6.736680416890833 5
    endloop
  endfacet
  facet normal 0 0 1
    outer loop
      vertex -0.4238360068228646 6.736680416890833 5
      vertex 2 2 5
      vertex 0.4238360068228646 6.736680416890833 5
    endloop
  endfacet
  facet normal 0 0 1
    outer loop
      vertex 0.4238360068228646 6.736680416890833 5
      vertex 2 2 5
      vertex 1.2648238734536408 6.630438942418649 5
    endloop
  endfacet
  facet normal 0 0 1
    outer loop
      vertex 1.2648238734536408 6.630438942418649 5
      vertex 2 2 5
      vertex 2.085864712030895 6.419631484992286 5
    endloop
  endfacet
  facet normal 0.9980267284282716 0.06279051952931253 0
    outer loop
      vertex 6.696774233872726 0.8459993265590537 0
      vertex 6.696774233872726 0.8459993265590537 5
      vertex 6.75 0 5
    endloop
  endfacet
  facet normal 0.9822872507286884 0.18738131458572577 0
    outer loop
      vertex 6.53793633761826 1.67865673836277 0
      vertex 6.53793633761826 1.67865673836277 5
      vertex 6.696774233872726 0.8459993265590537 5
    endloop
  endfacet
  facet normal 0.9510565162951533 0.30901699437494784 0
    outer loop
      vertex 6.275991279745696 2.4848407306215763 0
      vertex 6.275991279745696 2.4848407306215763 5
      vertex 6.53793633761826 1.67865673836277 5
    endloop
  endfacet
  facet normal 0.9048270524660199 0.425779291565072 0
    outer loop
      vertex 5.915070090296079 3.2518373001865784 0
      vertex 5.915070090296079 3.2518373001865784 5
      vertex 6.275991279745696 2.4848407306215763 5
    endloop
  endfacet
  facet normal 0 0 1
    outer loop
      vertex 4.302611930803657 -5.200964388736576 5
      vertex 4.920538235094528 4.620692965018649 5
      vertex 4.302611930803656 5.200964388736577 5
    endloop
  endfacet
  facet normal 0 0 1
    outer loop
      vertex 3.6168308661082245 -5.6992134971386035 5
      vertex 4.302611930803656 5.200964388736577 5
      vertex 3.6168308661082276 5.699213497138602 5
    endloop
  endfacet
  facet normal 0 0 1
    outer loop
      vertex 4.920538235094528 -4.620692965018647 5
      vertex 5.4608647120308955 3.967550452974194 5
      vertex 4.920538235094528 4.620692965018649 5
    endloop
  endfacet
  facet normal 0 0 1
    outer loop
      vertex 5.4608647120308955 -3.967550452974194 5
      vertex 5.915070090296079 3.2518373001865784 5
      vertex 5.4608647120308955 3.967550452974194 5
    endloop
  endfacet
  facet normal 0 0 1
    outer loop
      vertex 5.915070090296078 -3.251837300186579 5
      vertex 6.275991279745696 2.4848407306215763 5
      vertex 5.915070090296079 3.2518373001865784 5
    endloop
  endfacet
  facet normal 0 0 1
    outer loop
      vertex 6.696774233872726 -0.8459993265590524 5
      vertex 6.75 0 5
      vertex 6.696774233872726 0.8459993265590537 5
    endloop
  endfacet
  facet normal 0 0 1
    outer loop
      vertex 6.537936337618261 -1.6786567383627675 5
      vertex 6.696774233872726 0.8459993265590537 5
      vertex 6.53793633761826 1.67865673836277 5
    endloop
  endfacet
  facet normal 0 0 1
    outer loop
      vertex 6.275991279745696 -2.484840730621579 5
      vertex 6.53793633761826 1.67865673836277 5
      vertex 6.275991279745696 2.4848407306215763 5
    endloop
  endfacet
  facet normal 0.6845471059286883 0.728968627421412 0
    outer loop
      vertex 4.302611930803656 5.200964388736577 0
      vertex 4.302611930803656 5.200964388736577 5
      vertex 4.920538235094528 4.620692965018649 5
    endloop
  endfacet
  facet normal 0.5877852522924731 0.8090169943749475 0
    outer loop
      vertex 3.6168308661082276 5.699213497138602 0
      vertex 3.6168308661082276 5.699213497138602 5
      vertex 4.302611930803656 5.200964388736577 5
    endloop
  endfacet
  facet normal 0.8443279255020154 0.5358267949789962 0
    outer loop
      vertex 5.4608647120308955 3.967550452974194 0
      vertex 5.4608647120308955 3.967550452974194 5
      vertex 5.915070090296079 3.2518373001865784 5
    endloop
  endfacet
  facet normal 0.7705132427757895 0.6374239897486894 0
    outer loop
      vertex 4.920538235094528 4.620692965018649 0
      vertex 4.920538235094528 4.620692965018649 5
      vertex 5.4608647120308955 3.967550452974194 5
    endloop
  endfacet
  facet normal 0 0 1
    outer loop
      vertex -2 -2 2
      vertex 2 -2 2
      vertex -2 2 2
    endloop
  endfacet
  facet normal 0 1 0
    outer loop
      vertex -2 -2 2
      vertex -2 -2 5
      vertex 2 -2 2
    endloop
  endfacet
  facet normal 1 0 0
    outer loop
      vertex -2 -2 2
      vertex -2 2 5
      vertex -2 -2 5
    endloop
  endfacet
  facet normal 1 0 0
    outer loop
      vertex -2 -2 2
      vertex -2 2 2
      vertex -2 2 5
    endloop
  endfacet
  facet normal 0 -1 0
    outer loop
      vertex -2 2 2
      vertex 2 2 5
      vertex -2 2 5
    endloop
  endfacet
  facet normal -1 0 0
    outer loop
      vertex 2 -2 2
      vertex 2 -2 5
      vertex 2 2 2
    endloop
  endfacet
  facet normal 0 1 0
    outer loop
      vertex 2 -2 2
      vertex -2 -2 5
      vertex 2 -2 5
    endloop
  endfacet
  facet normal 0 0 1
    outer loop
      vertex -2 2 2
      vertex 2 -2 2
      vertex 2 2 2
    endloop
  endfacet
  facet normal 0 -1 0
    outer loop
      vertex -2 2 2
      vertex 2 2 2
      vertex 2 2 5
    endloop
  endfacet
  facet normal -1 0 0
    outer loop
      vertex 2 2 2
      vertex 2 -2 5
      vertex 2 2 5
    endloop
  endfacet
endsolid OpenSCAD_Model
